# xmcd CD database file
#
# Track frame offsets:
#	150
#	20612
#	41312
#	52862
#	75587
#	93212
#	119387
#	136787
#	159587
#	175937
#	196112
#	213062
#	236012
#	251687
#
# Disc length: 3630 seconds
#
# Revision: 0
# Processed by: cddbd v1.5.1PL0 Copyright (c) Steve Scherf et al.
# Submitted via: CDex 1.51
#
DISCID=a60e2c0e
DTITLE=BBB - Smokin' The Blues
DYEAR=1994
DGENRE=Blues
TTITLE0=Smokin' The Blues
TTITLE1=Little Cool Loving Baby
TTITLE2=Square Meal
TTITLE3=Make A Man Of Me
TTITLE4=Get Outta The Way
TTITLE5=Walk Away
TTITLE6=Love Is Blind
TTITLE7=Playin' The Blues
TTITLE8=You're So Sweet
TTITLE9=Too Much Water
TTITLE10=Chameleon Man
TTITLE11=You Don't Love Me Anymore
TTITLE12=I'm Sorry Babe
TTITLE13=I Won't Stay
EXTD=YEAR: 1994
EXTT0=
EXTT1=
EXTT2=
EXTT3=
EXTT4=
EXTT5=
EXTT6=
EXTT7=
EXTT8=
EXTT9=
EXTT10=
EXTT11=
EXTT12=
EXTT13=
PLAYORDER=
